<svg width="25" height="24" fill="none" xmlns="http://www.w3.org/2000/svg"><g clip-path="url(#a)" fill="#34C759"><path d="M17.098 8.165H7.902C3.538 8.165 0 11.709 0 16.082 0 20.455 3.538 24 7.902 24h9.196C21.462 24 25 20.455 25 16.082s-3.538-7.917-7.902-7.917Zm-.172 14.927c-3.862 0-6.994-3.138-6.994-7.009 0-3.87 3.132-7.009 6.994-7.009 3.863 0 6.994 3.139 6.994 7.01 0 3.87-3.132 7.008-6.994 7.008ZM16.005 4.684a5.6 5.6 0 0 0 .712 2.744 4.694 4.694 0 0 1-3.805-5.481 4.68 4.68 0 0 1 3.613.374 5.592 5.592 0 0 0-.52 2.363ZM22.207 2.8c0 2.12-1.4 3.911-3.324 4.496-.331.1-.676.166-1.034.19h-.002a4.684 4.684 0 0 1-.922-2.802A4.685 4.685 0 0 1 21.285 0c.579.782.922 1.751.922 2.8Z"/></g><defs><clipPath id="a"><path fill="#fff" d="M0 0h25v24H0z"/></clipPath></defs></svg>